@startuml ALBUM

class Photo {
    - name : String 
    - image : Image
}

class Album {
    - name : String 
}

class Page 
class Repository {
    - Collection<String> paths;
}

Album  "1" -- "*" Page
Page "1" -- "2" Photo

class Configuration {
    Stage primaryStage
}

Configuration o--> CreationScene
Configuration o--> Scene

class Scene 

class CreationScene extends Scene {
    String directoyPath
}

CreationScene o-> Album
CreationScene o--> Repository

@enduml